<?xml version="1.0" standalone="no"?>
<!DOCTYPE svg PUBLIC "-//W3C//DTD SVG 20010904//EN"
 "http://www.w3.org/TR/2001/REC-SVG-20010904/DTD/svg10.dtd">
<svg version="1.0" xmlns="http://www.w3.org/2000/svg"
 width="500.000000pt" height="500.000000pt" viewBox="0 0 500.000000 500.000000"
 preserveAspectRatio="xMidYMid meet">
<metadata>
Created by potrace 1.14, written by Peter Selinger 2001-2017
</metadata>
<g transform="translate(0.000000,500.000000) scale(0.100000,-0.100000)"
fill="#000000" stroke="none">
<path d="M401 4739 c-46 -14 -127 -97 -140 -145 -7 -27 -11 -324 -11 -930 l0
-892 28 -53 c17 -34 44 -65 71 -84 l43 -30 932 0 932 0 42 28 c23 15 54 46 69
69 l28 42 3 915 2 915 -25 51 c-28 55 -68 91 -123 111 -30 10 -218 13 -927 13
-541 -1 -903 -5 -924 -10z m498 -896 l104 -417 111 417 110 417 106 0 107 0
98 -372 c54 -205 103 -393 110 -418 11 -45 12 -41 116 373 l104 417 152 0 c91
0 153 -4 153 -10 0 -8 -263 -936 -321 -1132 l-20 -68 -154 0 -154 0 -19 63
c-10 34 -52 180 -93 324 -41 145 -76 263 -79 263 -3 0 -38 -118 -79 -263 -41
-144 -83 -290 -93 -325 l-19 -63 -156 3 -156 3 -168 590 c-93 325 -168 596
-169 603 0 9 37 12 153 12 l152 0 104 -417z"/>
<path d="M2669 4722 c-34 -17 -65 -44 -84 -71 l-30 -43 -3 -911 c-2 -639 0
-923 8 -950 14 -48 61 -102 114 -130 l41 -22 910 0 910 0 41 22 c53 28 100 82
114 130 8 27 10 311 8 950 l-3 911 -30 43 c-19 27 -50 54 -84 71 l-53 28 -903
0 -903 0 -53 -28z m1031 -473 c98 -16 173 -53 230 -116 60 -66 80 -125 80
-239 0 -147 -62 -254 -184 -320 l-55 -29 175 -210 c97 -116 189 -227 206 -247
l30 -38 -175 0 -174 0 -179 232 -179 231 -3 -231 -2 -232 -140 0 -140 0 0 605
0 605 223 0 c122 0 251 -5 287 -11z"/>
<path d="M3470 3880 l0 -163 74 6 c112 8 157 38 174 115 18 77 -14 153 -73
178 -19 7 -66 17 -104 20 l-71 7 0 -163z"/>
<path d="M384 2391 c-49 -22 -111 -92 -124 -140 -15 -56 -13 -1792 2 -1845 8
-25 31 -59 59 -87 37 -38 57 -49 100 -58 39 -8 312 -11 940 -9 l886 3 49 30
c30 19 60 49 79 79 l30 49 3 886 c2 620 0 901 -8 937 -13 63 -63 124 -123 153
-43 21 -51 21 -948 21 -857 0 -906 -1 -945 -19z m1066 -455 c106 -30 181 -75
266 -160 124 -124 174 -246 174 -421 0 -112 -20 -198 -65 -284 -70 -132 -191
-236 -335 -288 -72 -26 -85 -27 -312 -31 l-238 -4 0 607 0 608 228 -6 c161 -4
243 -10 282 -21z"/>
<path d="M1210 1356 l0 -356 60 0 c162 0 292 119 319 292 20 119 -14 231 -94
317 -56 60 -127 92 -217 99 l-68 5 0 -357z"/>
</g>
</svg>
